<svg width="174" height="36" viewBox="0 0 174 36" fill="none" xmlns="http://www.w3.org/2000/svg">
<g clip-path="url(#clip0_11_110)">
<path d="M11.3705 15.4482L18.0961 8.72537L24.8243 15.4537L28.7355 11.5398L18.0961 0.897583L7.4566 11.537L11.3705 15.4482Z" fill="#F3BA2F"/>
<path d="M4.69308 14.2999L0.780655 18.2123L4.69308 22.1247L8.60551 18.2123L4.69308 14.2999Z" fill="#F3BA2F"/>
<path d="M11.3705 20.9758L18.096 27.7013L24.8243 20.973L28.7382 24.8814L28.7355 24.8842L18.096 35.5264L7.4566 24.8897L7.45113 24.8842L11.3705 20.9758Z" fill="#F3BA2F"/>
<path d="M31.4953 14.3002L27.5828 18.2126L31.4953 22.1251L35.4077 18.2126L31.4953 14.3002Z" fill="#F3BA2F"/>
<path d="M22.0646 18.2106L18.096 14.2393L15.1613 17.174L14.8222 17.5104L14.1274 18.2051L14.122 18.2133L14.1274 18.2188L18.096 22.1847L22.0646 18.2133H22.0674L22.0646 18.2106Z" fill="#F3BA2F"/>
<path d="M41.511 9.28882H50.0226C52.1341 9.28882 53.7314 9.83036 54.8145 10.9162C55.6514 11.7559 56.0699 12.7979 56.0699 14.0369V14.0889C56.0699 14.614 56.0042 15.0762 55.8757 15.4783C55.7444 15.8804 55.5721 16.2441 55.3533 16.5669C55.1372 16.8896 54.8856 17.174 54.5984 17.4202C54.3112 17.6664 54.0021 17.8742 53.6739 18.0493C54.7351 18.4513 55.5721 18.9983 56.182 19.6903C56.7919 20.3823 57.0955 21.3396 57.0955 22.5621V22.6141C57.0955 23.4538 56.9341 24.1868 56.6114 24.8186C56.2887 25.4477 55.8264 25.9728 55.222 26.3913C54.6203 26.8125 53.8955 27.1243 53.0476 27.3349C52.1997 27.5455 51.2616 27.6494 50.2332 27.6494H41.511V9.28882V9.28882ZM49.1693 16.7118C50.0609 16.7118 50.7693 16.5587 51.2944 16.2523C51.8196 15.946 52.0821 15.4509 52.0821 14.7699V14.7179C52.0821 14.1053 51.8551 13.6376 51.4011 13.3149C50.9471 12.9921 50.2906 12.828 49.4346 12.828H45.4441V16.7091C45.4441 16.7118 49.1693 16.7118 49.1693 16.7118ZM50.2469 24.1102C51.1385 24.1102 51.8387 23.9488 52.3447 23.6261C52.8507 23.3034 53.105 22.8001 53.105 22.1163V22.0644C53.105 21.4517 52.8698 20.9676 52.3967 20.6093C51.9235 20.251 51.1631 20.0732 50.1129 20.0732H45.4441V24.1129L50.2469 24.1102Z" fill="white"/>
<path d="M62.1609 9.28882H66.2006V27.6521H62.1609V9.28882Z" fill="white"/>
<path d="M72.3217 9.28882H76.0469L84.6514 20.5956V9.28882H88.6392V27.6521H85.2039L76.3094 15.9788V27.6521H72.3217V9.28882Z" fill="white"/>
<path d="M100.868 9.15747H104.593L112.464 27.6521H108.241L106.562 23.533H98.7972L97.1179 27.6521H92.9989L100.868 9.15747ZM105.118 19.9665L102.678 14.0122L100.239 19.9665H105.118Z" fill="white"/>
<path d="M116.824 9.28882H120.549L129.154 20.5956V9.28882H133.142V27.6521H129.706L120.812 15.9788V27.6521H116.824V9.28882Z" fill="white"/>
<path d="M147.681 27.9666C146.333 27.9666 145.083 27.7205 143.929 27.2336C142.775 26.7468 141.779 26.0739 140.939 25.2261C140.1 24.3782 139.443 23.3772 138.973 22.223C138.5 21.0688 138.264 19.8352 138.264 18.5224V18.4704C138.264 17.1576 138.5 15.9295 138.973 14.7835C139.446 13.6375 140.1 12.6338 140.939 11.7668C141.779 10.8997 142.785 10.2187 143.956 9.72092C145.127 9.22313 146.423 8.97424 147.84 8.97424C148.696 8.97424 149.478 9.04535 150.187 9.18484C150.895 9.32433 151.538 9.51852 152.115 9.76195C152.692 10.0081 153.225 10.3035 153.715 10.6536C154.204 11.0037 154.658 11.3893 155.08 11.8078L152.509 14.7726C151.789 14.1244 151.062 13.6184 150.318 13.2519C149.574 12.8854 148.74 12.7022 147.813 12.7022C147.044 12.7022 146.33 12.8498 145.674 13.148C145.017 13.4461 144.454 13.8564 143.981 14.3815C143.51 14.9066 143.141 15.5138 142.878 16.2058C142.616 16.8978 142.485 17.6362 142.485 18.4212V18.4732C142.485 19.2609 142.616 20.0048 142.878 20.7023C143.141 21.4024 143.502 22.0151 143.967 22.5375C144.429 23.0626 144.99 23.4784 145.646 23.7847C146.303 24.091 147.025 24.2442 147.81 24.2442C148.86 24.2442 149.746 24.0527 150.471 23.6671C151.196 23.2842 151.918 22.759 152.635 22.0944L155.205 24.6927C154.732 25.2015 154.243 25.6555 153.737 26.0575C153.231 26.4596 152.673 26.8042 152.071 27.0941C151.467 27.3813 150.807 27.6029 150.091 27.7505C149.377 27.8928 148.573 27.9666 147.681 27.9666Z" fill="white"/>
<path d="M159.964 9.28882H173.79V12.8827H163.952V16.6079H172.609V20.2018H163.952V24.0582H173.922V27.6521H159.964V9.28882Z" fill="white"/>
</g>
<defs>
<clipPath id="clip0_11_110">
<rect width="173.141" height="34.6288" fill="white" transform="translate(0.780273 0.897583)"/>
</clipPath>
</defs>
</svg>
