<svg width="189" height="36" viewBox="0 0 189 36" fill="none" xmlns="http://www.w3.org/2000/svg">
<g clip-path="url(#clip0_11_109)">
<path d="M166.223 18.306C165.251 17.6653 164.169 17.2014 163.153 16.627C162.49 16.2514 161.783 15.9311 161.22 15.4561C160.248 14.6498 160.446 13.0813 161.463 12.3964C162.932 11.4244 165.351 11.9656 165.605 13.9539C165.605 13.9981 165.649 14.0202 165.693 14.0202H167.902C167.958 14.0202 168.002 13.976 167.991 13.9207C167.88 12.5511 167.339 11.4023 166.367 10.6733C165.428 9.97737 164.368 9.60181 163.241 9.60181C157.398 9.60181 156.867 15.7654 160.016 17.7205C160.369 17.9525 163.462 19.4989 164.555 20.1727C165.649 20.8465 165.991 22.0726 165.516 23.0446C165.086 23.9283 163.97 24.5469 162.843 24.4806C161.628 24.4143 160.678 23.7516 160.347 22.7243C160.292 22.5365 160.259 22.1831 160.259 22.0284C160.259 21.9842 160.214 21.94 160.17 21.94H157.773C157.729 21.94 157.685 21.9842 157.685 22.0284C157.685 23.7626 158.116 24.7236 159.298 25.5962C160.402 26.4247 161.606 26.7671 162.854 26.7671C166.124 26.7671 167.814 24.9224 168.167 23.0005C168.466 21.1116 167.902 19.4326 166.223 18.306Z" fill="white"/>
<path d="M62.1712 9.92212H61.1108H59.951C59.9068 9.92212 59.8736 9.95526 59.8626 9.97735L57.8964 16.4502C57.8633 16.5386 57.7528 16.5386 57.7197 16.4502L55.7535 9.97735C55.7425 9.93317 55.7093 9.92212 55.6652 9.92212H54.5053H53.4449H52.009C51.9648 9.92212 51.9206 9.9663 51.9206 10.0105V26.5241C51.9206 26.5682 51.9648 26.6124 52.009 26.6124H54.4059C54.4501 26.6124 54.4943 26.5682 54.4943 26.5241V13.976C54.4943 13.8765 54.6379 13.8655 54.671 13.9428L56.6482 20.4599L56.7918 20.9128C56.8029 20.9569 56.836 20.968 56.8802 20.968H58.7138C58.758 20.968 58.7801 20.9349 58.8022 20.9128L58.9458 20.4599L60.923 13.9428C60.9561 13.8434 61.0997 13.8765 61.0997 13.976V26.5241C61.0997 26.5682 61.1439 26.6124 61.1881 26.6124H63.585C63.6292 26.6124 63.6734 26.5682 63.6734 26.5241V10.0105C63.6734 9.9663 63.6292 9.92212 63.585 9.92212H62.1712Z" fill="white"/>
<path d="M129.529 9.92212C129.485 9.92212 129.452 9.95526 129.441 9.97735L127.474 16.4502C127.441 16.5386 127.331 16.5386 127.298 16.4502L125.331 9.97735C125.32 9.93317 125.287 9.92212 125.243 9.92212H121.598C121.554 9.92212 121.51 9.9663 121.51 10.0105V26.5241C121.51 26.5682 121.554 26.6124 121.598 26.6124H123.995C124.039 26.6124 124.083 26.5682 124.083 26.5241V13.976C124.083 13.8765 124.227 13.8655 124.26 13.9428L126.237 20.4599L126.381 20.9128C126.392 20.9569 126.425 20.968 126.469 20.968H128.303C128.347 20.968 128.38 20.9349 128.391 20.9128L128.535 20.4599L130.512 13.9428C130.545 13.8434 130.689 13.8765 130.689 13.976V26.5241C130.689 26.5682 130.733 26.6124 130.777 26.6124H133.174C133.218 26.6124 133.262 26.5682 133.262 26.5241V10.0105C133.262 9.9663 133.218 9.92212 133.174 9.92212H129.529Z" fill="white"/>
<path d="M98.6226 9.92212H94.16H91.7631H87.3006C87.2564 9.92212 87.2122 9.9663 87.2122 10.0105V12.0761C87.2122 12.1202 87.2564 12.1644 87.3006 12.1644H91.6747V26.5241C91.6747 26.5682 91.7189 26.6124 91.7631 26.6124H94.16C94.2042 26.6124 94.2484 26.5682 94.2484 26.5241V12.1534H98.6226C98.6668 12.1534 98.7109 12.1092 98.7109 12.065V10.0105C98.7109 9.9663 98.6778 9.92212 98.6226 9.92212Z" fill="white"/>
<path d="M112.761 26.6124H114.937C114.993 26.6124 115.037 26.5571 115.026 26.5019L110.519 9.92205C110.508 9.87787 110.475 9.86682 110.431 9.86682H109.602H108.133H107.305C107.26 9.86682 107.227 9.89996 107.216 9.92205L102.71 26.5019C102.698 26.5571 102.743 26.6124 102.798 26.6124H104.974C105.018 26.6124 105.04 26.5792 105.062 26.5571L106.366 21.7301C106.377 21.6859 106.41 21.6749 106.454 21.6749H111.281C111.325 21.6749 111.358 21.708 111.369 21.7301L112.673 26.5571C112.684 26.5792 112.728 26.6124 112.761 26.6124ZM107.028 19.311L108.774 12.8603C108.807 12.7719 108.917 12.7719 108.95 12.8603L110.696 19.311C110.707 19.3663 110.663 19.4215 110.607 19.4215H107.106C107.062 19.4325 107.017 19.3663 107.028 19.311Z" fill="white"/>
<path d="M149.953 26.6124H152.129C152.184 26.6124 152.228 26.5571 152.217 26.5019L147.71 9.92205C147.699 9.87787 147.666 9.86682 147.622 9.86682H146.794H145.336H144.507C144.463 9.86682 144.43 9.89996 144.419 9.92205L139.912 26.5019C139.901 26.5571 139.945 26.6124 140 26.6124H142.176C142.221 26.6124 142.254 26.5792 142.265 26.5571L143.568 21.7301C143.579 21.6859 143.612 21.6749 143.657 21.6749H148.484C148.528 21.6749 148.561 21.708 148.572 21.7301L149.875 26.5571C149.875 26.5792 149.909 26.6124 149.953 26.6124ZM144.22 19.311L145.976 12.8603C146.009 12.7719 146.12 12.7719 146.153 12.8603L147.909 19.311C147.92 19.3663 147.876 19.4215 147.821 19.4215H144.319C144.253 19.4325 144.209 19.3663 144.22 19.311Z" fill="white"/>
<path d="M73.3938 24.1603V19.035C73.3938 18.9908 73.438 18.9467 73.4822 18.9467H79.8667C79.9109 18.9467 79.955 18.9025 79.955 18.8583V16.8038C79.955 16.7596 79.9109 16.7154 79.8667 16.7154H73.4822C73.438 16.7154 73.3938 16.6712 73.3938 16.627V12.2529C73.3938 12.2087 73.438 12.1645 73.4822 12.1645H80.7393C80.7835 12.1645 80.8277 12.1203 80.8277 12.0761V10.0216C80.8277 9.97741 80.7835 9.93323 80.7393 9.93323H73.3938H70.9085C70.8643 9.93323 70.8201 9.97741 70.8201 10.0216V12.1645V16.7264V18.9577V24.2487V26.5131C70.8201 26.5573 70.8643 26.6014 70.9085 26.6014H73.3938H81.0375C81.0817 26.6014 81.1259 26.5573 81.1259 26.5131V24.337C81.1259 24.2929 81.0817 24.2487 81.0375 24.2487H73.4601C73.4269 24.2487 73.3938 24.2266 73.3938 24.1603Z" fill="white"/>
<path d="M188.127 26.4689L179.832 17.9194C179.799 17.8863 179.799 17.831 179.832 17.8089L187.299 10.0768C187.354 10.0216 187.31 9.93323 187.244 9.93323H184.184C184.151 9.93323 184.14 9.94427 184.129 9.96636L177.799 16.5166C177.744 16.5718 177.656 16.5276 177.656 16.4613V10.0216C177.656 9.97741 177.612 9.93323 177.567 9.93323H175.17C175.126 9.93323 175.082 9.97741 175.082 10.0216V26.5352C175.082 26.5794 175.126 26.6235 175.17 26.6235H177.567C177.612 26.6235 177.656 26.5794 177.656 26.5352V19.267C177.656 19.2007 177.755 19.1565 177.799 19.2118L184.968 26.6014C184.979 26.6125 185.012 26.6346 185.023 26.6346H188.083C188.138 26.6125 188.183 26.5131 188.127 26.4689Z" fill="white"/>
<path d="M35.5506 1.04126L21.0474 11.7668L23.7426 5.43752L35.5506 1.04126Z" fill="#E17726" stroke="#E17726" stroke-width="0.276147" stroke-linecap="round" stroke-linejoin="round"/>
<path d="M2.0927 1.04126L16.4744 11.8773L13.9007 5.44856L2.0927 1.04126Z" fill="#E27625" stroke="#E27625" stroke-width="0.276147" stroke-linecap="round" stroke-linejoin="round"/>
<path d="M30.3259 25.9276L26.4709 31.8261L34.7332 34.1016L37.097 26.0602L30.3259 25.9276Z" fill="#E27625" stroke="#E27625" stroke-width="0.276147" stroke-linecap="round" stroke-linejoin="round"/>
<path d="M0.557302 26.0602L2.91007 34.1016L11.1613 31.8261L7.31738 25.9276L0.557302 26.0602Z" fill="#E27625" stroke="#E27625" stroke-width="0.276147" stroke-linecap="round" stroke-linejoin="round"/>
<path d="M10.7195 15.9642L8.42196 19.4326L16.5959 19.8082L16.3198 11.0046L10.7195 15.9642Z" fill="#E27625" stroke="#E27625" stroke-width="0.276147" stroke-linecap="round" stroke-linejoin="round"/>
<path d="M26.9349 15.9642L21.2352 10.8942L21.0474 19.7971L29.2214 19.4216L26.9349 15.9642Z" fill="#E27625" stroke="#E27625" stroke-width="0.276147" stroke-linecap="round" stroke-linejoin="round"/>
<path d="M11.1613 31.8261L16.1099 29.4402L11.8462 26.1154L11.1613 31.8261Z" fill="#E27625" stroke="#E27625" stroke-width="0.276147" stroke-linecap="round" stroke-linejoin="round"/>
<path d="M21.5334 29.4291L26.4709 31.8261L25.7971 26.1154L21.5334 29.4291Z" fill="#E27625" stroke="#E27625" stroke-width="0.276147" stroke-linecap="round" stroke-linejoin="round"/>
<path d="M26.4709 31.8261L21.5334 29.4402L21.9311 32.6435L21.8869 34.0021L26.4709 31.8261Z" fill="#D5BFB2" stroke="#D5BFB2" stroke-width="0.276147" stroke-linecap="round" stroke-linejoin="round"/>
<path d="M11.1613 31.8261L15.7564 34.0021L15.7233 32.6435L16.1099 29.4402L11.1613 31.8261Z" fill="#D5BFB2" stroke="#D5BFB2" stroke-width="0.276147" stroke-linecap="round" stroke-linejoin="round"/>
<path d="M15.8338 23.9945L11.7247 22.7905L14.6187 21.454L15.8338 23.9945Z" fill="#233447" stroke="#233447" stroke-width="0.276147" stroke-linecap="round" stroke-linejoin="round"/>
<path d="M21.8096 23.9945L23.0136 21.465L25.9297 22.8015L21.8096 23.9945Z" fill="#233447" stroke="#233447" stroke-width="0.276147" stroke-linecap="round" stroke-linejoin="round"/>
<path d="M11.1613 31.8261L11.8793 25.9276L7.31737 26.0602L11.1613 31.8261Z" fill="#CC6228" stroke="#CC6228" stroke-width="0.276147" stroke-linecap="round" stroke-linejoin="round"/>
<path d="M25.764 25.9276L26.4709 31.8261L30.3259 26.0602L25.764 25.9276Z" fill="#CC6228" stroke="#CC6228" stroke-width="0.276147" stroke-linecap="round" stroke-linejoin="round"/>
<path d="M29.2214 19.4326L21.0474 19.8082L21.8096 24.0056L23.0136 21.4761L25.9297 22.8127L29.2214 19.4326Z" fill="#CC6228" stroke="#CC6228" stroke-width="0.276147" stroke-linecap="round" stroke-linejoin="round"/>
<path d="M11.7357 22.7906L14.6297 21.454L15.8337 23.9835L16.5959 19.7861L8.42196 19.4105L11.7357 22.7906Z" fill="#CC6228" stroke="#CC6228" stroke-width="0.276147" stroke-linecap="round" stroke-linejoin="round"/>
<path d="M8.42196 19.4326L11.8462 26.1154L11.7357 22.7906L8.42196 19.4326Z" fill="#E27525" stroke="#E27525" stroke-width="0.276147" stroke-linecap="round" stroke-linejoin="round"/>
<path d="M25.9297 22.7906L25.7971 26.1154L29.2213 19.4326L25.9297 22.7906Z" fill="#E27525" stroke="#E27525" stroke-width="0.276147" stroke-linecap="round" stroke-linejoin="round"/>
<path d="M16.5959 19.7971L15.8338 23.9946L16.7948 28.9431L17.0046 22.415L16.5959 19.7971Z" fill="#E27525" stroke="#E27525" stroke-width="0.276147" stroke-linecap="round" stroke-linejoin="round"/>
<path d="M21.0474 19.7971L20.6497 22.4039L20.8486 28.9431L21.8096 23.9946L21.0474 19.7971Z" fill="#E27525" stroke="#E27525" stroke-width="0.276147" stroke-linecap="round" stroke-linejoin="round"/>
<path d="M21.8096 23.9946L20.8486 28.9431L21.5334 29.4292L25.7971 26.1043L25.9297 22.7795L21.8096 23.9946Z" fill="#F5841F" stroke="#F5841F" stroke-width="0.276147" stroke-linecap="round" stroke-linejoin="round"/>
<path d="M11.7357 22.7905L11.8462 26.1153L16.1099 29.4401L16.7947 28.9541L15.8337 24.0056L11.7357 22.7905Z" fill="#F5841F" stroke="#F5841F" stroke-width="0.276147" stroke-linecap="round" stroke-linejoin="round"/>
<path d="M21.8979 34.0021L21.9421 32.6434L21.5666 32.3231H16.0878L15.7343 32.6434L15.7675 34.0021L11.1613 31.826L12.774 33.1405L16.0326 35.3828H21.6107L24.8803 33.1405L26.4709 31.826L21.8979 34.0021Z" fill="#C0AC9D" stroke="#C0AC9D" stroke-width="0.276147" stroke-linecap="round" stroke-linejoin="round"/>
<path d="M21.5334 29.4291L20.8486 28.9431H16.7947L16.1099 29.4291L15.7233 32.6324L16.0768 32.3121H21.5555L21.9311 32.6324L21.5334 29.4291Z" fill="white" stroke="white" stroke-width="0.276147" stroke-linecap="round" stroke-linejoin="round"/>
<path d="M36.1692 12.4737L37.3843 6.55315L35.5506 1.04126L21.5334 11.4133L26.9238 15.9642L34.5455 18.1845L36.2244 16.2183L35.4954 15.6881L36.6552 14.6277L35.7605 13.9428L36.9203 13.0592L36.1692 12.4737Z" fill="#763E1A" stroke="#763E1A" stroke-width="0.276147" stroke-linecap="round" stroke-linejoin="round"/>
<path d="M0.259075 6.5421L1.49621 12.4627L0.711956 13.0481L1.89386 13.9318L0.999149 14.6166L2.15897 15.677L1.42994 16.2072L3.10891 18.1734L10.7306 15.9532L16.1209 11.4023L2.09269 1.04126L0.259075 6.5421Z" fill="#763E1A" stroke="#763E1A" stroke-width="0.276147" stroke-linecap="round" stroke-linejoin="round"/>
<path d="M34.5455 18.1845L26.9238 15.9642L29.2213 19.4326L25.7971 26.1154L30.337 26.0602H37.1081L34.5455 18.1845Z" fill="#F5841F" stroke="#F5841F" stroke-width="0.276147" stroke-linecap="round" stroke-linejoin="round"/>
<path d="M10.7195 15.9642L3.09785 18.1845L0.557302 26.0602H7.31738L11.8572 26.1154L8.43301 19.4326L10.7195 15.9642Z" fill="#F5841F" stroke="#F5841F" stroke-width="0.276147" stroke-linecap="round" stroke-linejoin="round"/>
<path d="M21.0474 19.7971L21.5334 11.4133L23.7426 5.44849H13.9007L16.1099 11.4133L16.5959 19.7971L16.7837 22.426L16.7948 28.9431H20.8375L20.8486 22.426L21.0474 19.7971Z" fill="#F5841F" stroke="#F5841F" stroke-width="0.276147" stroke-linecap="round" stroke-linejoin="round"/>
</g>
<defs>
<clipPath id="clip0_11_109">
<rect width="188.034" height="34.6288" fill="white" transform="translate(0.115479 0.897583)"/>
</clipPath>
</defs>
</svg>
