<svg width="112" height="21" viewBox="0 0 112 21" fill="none" xmlns="http://www.w3.org/2000/svg">
<path d="M0.8394 20V1.065H5.3297L11.9029 13.3186V1.065H16.0956V20H11.6053L5.03215 7.74635V20H0.8394ZM19.1034 20V1.065H30.6808V4.7438H23.4855V9.85625H30.6808V13.4539H23.4855V20H19.1034ZM37.0266 20V4.9602H31.833V1.065H46.6023V4.9602H41.3816V20H37.0266ZM63.7159 1.065L56.2771 10.4513L63.7159 20H58.4952L52.2737 11.6415V20H47.8916V1.065H52.2737V9.47755L58.5223 1.065H63.7159ZM65.099 20V1.065H69.4811V20H65.099ZM72.4796 20V1.065H76.9699L83.5431 13.3186V1.065H87.7358V20H83.2455L76.6724 7.74635V20H72.4796ZM111.004 10.0456V13.3457H109.219C108.732 15.6359 107.659 17.4122 106 18.6745C104.359 19.9189 102.24 20.541 99.6431 20.541C96.6496 20.541 94.2241 19.6123 92.3667 17.7548C90.5273 15.8794 89.6166 13.499 89.6346 10.6137C89.6346 7.74635 90.5453 5.34792 92.3667 3.41835C94.2061 1.48878 96.7127 0.524 99.8866 0.524C102.393 0.524 104.467 1.12812 106.108 2.33635C107.767 3.54458 108.678 5.07742 108.84 6.93485H104.052C103.872 6.12335 103.412 5.46513 102.673 4.9602C101.951 4.45527 101.032 4.2028 99.9136 4.2028C98.0562 4.2028 96.6315 4.78888 95.6397 5.96105C94.6659 7.13322 94.188 8.65703 94.2061 10.5325C94.188 12.3358 94.6839 13.8236 95.6938 14.9958C96.7217 16.1499 98.0742 16.7269 99.7513 16.7269C102.402 16.7269 104.052 15.5999 104.701 13.3457H101.32V10.0456H111.004Z" fill="white"/>
</svg>
